<mxfile host="app.diagrams.net" modified="2021-10-13T15:53:49.211Z" agent="5.0 (Macintosh; Intel Mac OS X 10_15_7) AppleWebKit/537.36 (KHTML, like Gecko) Chrome/94.0.4606.81 Safari/537.36" etag="mc0Jnml3Z7titWJ3tN2t" version="15.5.2" type="github">
  <diagram id="C5RBs43oDa-KdzZeNtuy" name="Page-1">
    <mxGraphModel dx="1693" dy="601" grid="1" gridSize="10" guides="1" tooltips="1" connect="1" arrows="1" fold="1" page="1" pageScale="1" pageWidth="827" pageHeight="1169" math="0" shadow="0">
      <root>
        <mxCell id="WIyWlLk6GJQsqaUBKTNV-0" />
        <mxCell id="WIyWlLk6GJQsqaUBKTNV-1" parent="WIyWlLk6GJQsqaUBKTNV-0" />
        <mxCell id="RyRgN0xtBMv2pA18CDNG-2" value="" style="edgeStyle=orthogonalEdgeStyle;rounded=0;orthogonalLoop=1;jettySize=auto;html=1;" edge="1" parent="WIyWlLk6GJQsqaUBKTNV-1" source="RyRgN0xtBMv2pA18CDNG-0">
          <mxGeometry relative="1" as="geometry">
            <mxPoint x="215" y="120" as="targetPoint" />
          </mxGeometry>
        </mxCell>
        <mxCell id="RyRgN0xtBMv2pA18CDNG-0" value="Start" style="ellipse;whiteSpace=wrap;html=1;" vertex="1" parent="WIyWlLk6GJQsqaUBKTNV-1">
          <mxGeometry x="180" y="50" width="70" height="40" as="geometry" />
        </mxCell>
        <mxCell id="RyRgN0xtBMv2pA18CDNG-4" value="" style="edgeStyle=orthogonalEdgeStyle;rounded=0;orthogonalLoop=1;jettySize=auto;html=1;" edge="1" parent="WIyWlLk6GJQsqaUBKTNV-1" target="RyRgN0xtBMv2pA18CDNG-3">
          <mxGeometry relative="1" as="geometry">
            <mxPoint x="215" y="160" as="sourcePoint" />
          </mxGeometry>
        </mxCell>
        <mxCell id="RyRgN0xtBMv2pA18CDNG-7" value="" style="edgeStyle=orthogonalEdgeStyle;rounded=0;orthogonalLoop=1;jettySize=auto;html=1;entryX=0.5;entryY=0;entryDx=0;entryDy=0;exitX=0;exitY=0.5;exitDx=0;exitDy=0;" edge="1" parent="WIyWlLk6GJQsqaUBKTNV-1" source="RyRgN0xtBMv2pA18CDNG-3" target="RyRgN0xtBMv2pA18CDNG-9">
          <mxGeometry relative="1" as="geometry">
            <mxPoint x="215" y="300" as="targetPoint" />
          </mxGeometry>
        </mxCell>
        <mxCell id="RyRgN0xtBMv2pA18CDNG-3" value="name != &#39;&#39;your name&quot;" style="rhombus;whiteSpace=wrap;html=1;" vertex="1" parent="WIyWlLk6GJQsqaUBKTNV-1">
          <mxGeometry x="146.25" y="190" width="137.5" height="80" as="geometry" />
        </mxCell>
        <mxCell id="RyRgN0xtBMv2pA18CDNG-5" value="name = &#39;&#39; &quot;" style="rounded=0;whiteSpace=wrap;html=1;" vertex="1" parent="WIyWlLk6GJQsqaUBKTNV-1">
          <mxGeometry x="152.5" y="120" width="127.5" height="40" as="geometry" />
        </mxCell>
        <mxCell id="RyRgN0xtBMv2pA18CDNG-11" value="" style="edgeStyle=orthogonalEdgeStyle;rounded=0;orthogonalLoop=1;jettySize=auto;html=1;exitX=0.5;exitY=1;exitDx=0;exitDy=0;" edge="1" parent="WIyWlLk6GJQsqaUBKTNV-1" source="RyRgN0xtBMv2pA18CDNG-9" target="RyRgN0xtBMv2pA18CDNG-10">
          <mxGeometry relative="1" as="geometry">
            <Array as="points">
              <mxPoint x="49" y="550" />
            </Array>
          </mxGeometry>
        </mxCell>
        <mxCell id="RyRgN0xtBMv2pA18CDNG-9" value="print(&quot;Thank you!&quot;)" style="shape=parallelogram;perimeter=parallelogramPerimeter;whiteSpace=wrap;html=1;fixedSize=1;" vertex="1" parent="WIyWlLk6GJQsqaUBKTNV-1">
          <mxGeometry x="-20" y="390" width="137.5" height="60" as="geometry" />
        </mxCell>
        <mxCell id="RyRgN0xtBMv2pA18CDNG-10" value="End" style="ellipse;whiteSpace=wrap;html=1;" vertex="1" parent="WIyWlLk6GJQsqaUBKTNV-1">
          <mxGeometry x="182.5" y="530" width="65" height="40" as="geometry" />
        </mxCell>
        <mxCell id="RyRgN0xtBMv2pA18CDNG-12" value="N" style="text;html=1;align=center;verticalAlign=middle;resizable=0;points=[];autosize=1;strokeColor=none;fillColor=none;" vertex="1" parent="WIyWlLk6GJQsqaUBKTNV-1">
          <mxGeometry x="126.25" y="200" width="20" height="20" as="geometry" />
        </mxCell>
        <mxCell id="RyRgN0xtBMv2pA18CDNG-15" value="print(&quot;Please type&lt;br&gt;&amp;nbsp;your name&quot;)" style="shape=parallelogram;perimeter=parallelogramPerimeter;whiteSpace=wrap;html=1;fixedSize=1;" vertex="1" parent="WIyWlLk6GJQsqaUBKTNV-1">
          <mxGeometry x="146.25" y="290" width="137.5" height="60" as="geometry" />
        </mxCell>
        <mxCell id="RyRgN0xtBMv2pA18CDNG-16" value="name = input()" style="shape=parallelogram;perimeter=parallelogramPerimeter;whiteSpace=wrap;html=1;fixedSize=1;" vertex="1" parent="WIyWlLk6GJQsqaUBKTNV-1">
          <mxGeometry x="140" y="390" width="137.5" height="60" as="geometry" />
        </mxCell>
        <mxCell id="RyRgN0xtBMv2pA18CDNG-18" value="" style="edgeStyle=orthogonalEdgeStyle;rounded=0;orthogonalLoop=1;jettySize=auto;html=1;exitX=0.49;exitY=1;exitDx=0;exitDy=0;exitPerimeter=0;" edge="1" parent="WIyWlLk6GJQsqaUBKTNV-1" source="RyRgN0xtBMv2pA18CDNG-3">
          <mxGeometry relative="1" as="geometry">
            <mxPoint x="225" y="170" as="sourcePoint" />
            <mxPoint x="214" y="290" as="targetPoint" />
          </mxGeometry>
        </mxCell>
        <mxCell id="RyRgN0xtBMv2pA18CDNG-19" value="" style="edgeStyle=orthogonalEdgeStyle;rounded=0;orthogonalLoop=1;jettySize=auto;html=1;exitX=0.5;exitY=1;exitDx=0;exitDy=0;entryX=0.553;entryY=-0.017;entryDx=0;entryDy=0;entryPerimeter=0;" edge="1" parent="WIyWlLk6GJQsqaUBKTNV-1" source="RyRgN0xtBMv2pA18CDNG-15" target="RyRgN0xtBMv2pA18CDNG-16">
          <mxGeometry relative="1" as="geometry">
            <mxPoint x="225" y="100" as="sourcePoint" />
            <mxPoint x="225" y="130" as="targetPoint" />
          </mxGeometry>
        </mxCell>
        <mxCell id="RyRgN0xtBMv2pA18CDNG-20" value="" style="edgeStyle=orthogonalEdgeStyle;rounded=0;orthogonalLoop=1;jettySize=auto;html=1;exitX=0.5;exitY=1;exitDx=0;exitDy=0;" edge="1" parent="WIyWlLk6GJQsqaUBKTNV-1" source="RyRgN0xtBMv2pA18CDNG-16">
          <mxGeometry relative="1" as="geometry">
            <mxPoint x="235" y="110" as="sourcePoint" />
            <mxPoint x="220" y="170" as="targetPoint" />
            <Array as="points">
              <mxPoint x="209" y="470" />
              <mxPoint x="320" y="470" />
              <mxPoint x="320" y="170" />
            </Array>
          </mxGeometry>
        </mxCell>
        <mxCell id="RyRgN0xtBMv2pA18CDNG-21" value="Y" style="text;html=1;align=center;verticalAlign=middle;resizable=0;points=[];autosize=1;strokeColor=none;fillColor=none;" vertex="1" parent="WIyWlLk6GJQsqaUBKTNV-1">
          <mxGeometry x="220" y="270" width="20" height="20" as="geometry" />
        </mxCell>
      </root>
    </mxGraphModel>
  </diagram>
</mxfile>
